<svg xmlns="http://www.w3.org/2000/svg" width="32" height="33" viewBox="0 0 32 33" fill="none">
    <path d="M32 16.3682C32 25.2047 24.8366 32.3682 16 32.3682C7.16344 32.3682 0 25.2047 0 16.3682C0 7.53161 7.16344 0.368164 16 0.368164C24.8366 0.368164 32 7.53161 32 16.3682Z" fill="#F5F5F5"/>
    <path d="M7.96598 22.0347L14.957 26.1276C15.5758 26.4898 16.3416 26.4914 16.9618 26.1316L24.0264 22.0334C24.6404 21.6773 25.0183 21.0211 25.0183 20.3113V12.3507C25.0183 11.636 24.6352 10.9761 24.0146 10.6218L16.9499 6.58813C16.3357 6.23745 15.5816 6.23895 14.9688 6.59206L7.97785 10.6204C7.36105 10.9758 6.98096 11.6335 6.98096 12.3454V20.3166C6.98096 21.0236 7.35588 21.6775 7.96598 22.0347Z" fill="#00E28D"/>
    <g filter="url(#filter0_f_1922_55)">
        <path d="M22.3503 16.3741C22.3503 19.8853 19.5039 22.7317 15.9928 22.7317C12.4816 22.7317 9.63525 19.8853 9.63525 16.3741C9.63525 12.863 12.4816 10.0166 15.9928 10.0166C19.5039 10.0166 22.3503 12.863 22.3503 16.3741Z" fill="white"/>
    </g>
    <path fill-rule="evenodd" clip-rule="evenodd" d="M14.9621 15.0064C15.5806 15.3683 16.3458 15.3698 16.9657 15.0104L24.0216 10.9204L24.8203 12.2983L17.7496 16.3969C17.1354 16.753 16.7572 17.4093 16.7572 18.1193V26.0897H15.1645V18.1119C15.1645 17.4047 14.7894 16.7506 14.179 16.3935L7.17603 12.2967L7.98026 10.922L14.9621 15.0064Z" fill="#00E28D"/>
    <defs>
        <filter id="filter0_f_1922_55" x="6.05183" y="6.43318" width="19.8819" height="19.8817" filterUnits="userSpaceOnUse" color-interpolation-filters="sRGB">
            <feFlood flood-opacity="0" result="BackgroundImageFix"/>
            <feBlend mode="normal" in="SourceGraphic" in2="BackgroundImageFix" result="shape"/>
            <feGaussianBlur stdDeviation="1.79171" result="effect1_foregroundBlur_1922_55"/>
        </filter>
    </defs>
</svg>
